# xmcd
#
# Track frame offsets:
#	150
#	11974
#	22955
#	36001
#	47459
#	57415
#	69799
#	78706
#	88512
#	100961
#	113783
#	124035
#
# Disc length: 1816 seconds
#
# Revision: 1
# Processed by: cddbd v1.5.2PL0 Copyright (c) Steve Scherf et al.
# Submitted via: dBpowerAMP V4.0
#
DISCID=9207160c
DTITLE=featuring Original Artists - Country greatest Hits
DYEAR=1900
DGENRE=country
TTITLE0=(Mercury) Orion - Crazy little thing called love
TTITLE1=(Deen/King) Dave Dudley - Truck driving son of a gun
TTITLE2=(Robinson) Patti Page - I went to your wedding
TTITLE3=(Locklin) Hank Locklin - send me the pillow you dream on
TTITLE4=(Chance/Newman) J. C. Newman - Alligator Man
TTITLE5=(Bellew/Van Givens) Charlie Walker - please don`t sqeeze my sharmon
TTITLE6=(Owens) J. O`Gwynn - down on the corner of love
TTITLE7=(Greene/Montgomery) Dave Dudley - six days on the road
TTITLE8=(Cash) Johnny Cash - I walk the line
TTITLE9=(Cash) Johnny Cash - folsom prison blues
TTITLE10=(Hayes) Leroy van Dyke - walk on by
TTITLE11=(Smith/Lewis) Leroy van Dyke - there never was a time
EXTD=
EXTT0=
EXTT1=
EXTT2=
EXTT3=
EXTT4=
EXTT5=
EXTT6=
EXTT7=
EXTT8=
EXTT9=
EXTT10=
EXTT11=
PLAYORDER=
